<svg width="112" height="36" viewBox="0 0 112 36" fill="none" xmlns="http://www.w3.org/2000/svg">
<g filter="url(#filter0_d_72_11)">
<path d="M19 0L22.3677 10.3647H33.2658L24.4491 16.7705L27.8168 27.1353L19 20.7295L10.1832 27.1353L13.5509 16.7705L4.73415 10.3647H15.6323L19 0Z" fill="white"/>
<path d="M56 0L59.3677 10.3647H70.2658L61.4491 16.7705L64.8168 27.1353L56 20.7295L47.1832 27.1353L50.5509 16.7705L41.7342 10.3647H52.6323L56 0Z" fill="white"/>
<path d="M93 0L96.3677 10.3647H107.266L98.4491 16.7705L101.817 27.1353L93 20.7295L84.1832 27.1353L87.5509 16.7705L78.7342 10.3647H89.6323L93 0Z" fill="white"/>
</g>
<defs>
<filter id="filter0_d_72_11" x="0.734161" y="0" width="110.532" height="35.1353" filterUnits="userSpaceOnUse" color-interpolation-filters="sRGB">
<feFlood flood-opacity="0" result="BackgroundImageFix"/>
<feColorMatrix in="SourceAlpha" type="matrix" values="0 0 0 0 0 0 0 0 0 0 0 0 0 0 0 0 0 0 127 0" result="hardAlpha"/>
<feOffset dy="4"/>
<feGaussianBlur stdDeviation="2"/>
<feComposite in2="hardAlpha" operator="out"/>
<feColorMatrix type="matrix" values="0 0 0 0 0 0 0 0 0 0 0 0 0 0 0 0 0 0 0.25 0"/>
<feBlend mode="normal" in2="BackgroundImageFix" result="effect1_dropShadow_72_11"/>
<feBlend mode="normal" in="SourceGraphic" in2="effect1_dropShadow_72_11" result="shape"/>
</filter>
</defs>
</svg>
